

<svg xmlns="http://www.w3.org/2000/svg" xml:space="preserve" width="100%" height="100%" version="1.1" style="shape-rendering:geometricPrecision; text-rendering:geometricPrecision; image-rendering:optimizeQuality; fill-rule:evenodd; clip-rule:evenodd"
viewBox="0 0 2678.71 1850.88">
 <defs>
  <style type="text/css">
   <![CDATA[
    .fil0 {fill:#1677ff}
   ]]>
  </style>
 </defs>
 <g id="_1526401943664">
   <path class="fil0" d="M1666.01 294.69c385.06,222.31 326.65,121.15 326.65,565.78 0,374.07 41.3,361.85 -174.86,480.92l0 -807.54c0,-27.56 -22.56,-50.12 -50.12,-50.12l-77.71 0c-70.3,0 -127.82,57.52 -127.82,127.82l0 876.16c-37.69,22.76 -68.74,41.8 -95.33,57.18l0 -804.57c0,-27.56 -22.55,-50.12 -50.12,-50.12l-77.71 0c-70.3,0 -127.82,57.52 -127.82,127.82l0 726.43c-26.44,-15.3 -57.28,-34.21 -94.61,-56.75l0 -566.32c0,-27.56 -22.54,-50.11 -50.11,-50.11l-77.72 0c-70.3,0 -127.82,57.52 -127.82,127.82l0 342.28c-216.17,-119.08 -174.87,-106.86 -174.87,-480.93 0,-444.63 -58.4,-343.47 326.65,-565.78 385.06,-222.31 268.25,-222.31 653.31,0zm59.05 -101.95c57.01,32.92 106.6,60.17 148.48,83.18l0.22 0.12c115.17,63.28 174.55,95.92 207.78,149.25l0.14 -0.08 2.97 5.15c32.47,56.23 31.04,124.08 28.18,259.71 0.03,0.04 -0.01,0.69 -0.02,0.79 -0.93,44.35 -2.04,96.85 -2.04,169.85 0,73.01 1.11,125.51 2.04,169.85l0.04 0.79c2.84,135.63 4.27,203.48 -28.2,259.71l-2.97 5.15 -0.14 -0.09c-16.18,25.94 -38.62,47.06 -70.71,69.19 -33.76,23.29 -78.06,47.63 -137.1,80.08 -21.5,11.81 -44.97,24.71 -68.56,37.86 -24.62,13.73 -51.29,28.78 -80.11,45.42 -60.92,35.17 -107.12,63.16 -146.14,86.8l-0.47 0.28c-57.86,35.06 -101.26,61.35 -138.13,78.89 -37.52,17.85 -68.47,26.77 -100.97,26.77l-5.82 0 0 -0.21c-30.5,-1 -60,-9.88 -95.26,-26.64 -36.86,-17.52 -80.21,-43.79 -138.01,-78.8l-0.47 -0.28c-39.02,-23.64 -85.22,-51.63 -146.14,-86.8 -57.01,-32.92 -106.6,-60.17 -148.48,-83.18l-0.22 -0.12c-115.17,-63.28 -174.55,-95.92 -207.78,-149.25l-0.14 0.09 -2.97 -5.15c-32.47,-56.23 -31.04,-124.08 -28.18,-259.71 -0.03,-0.04 0.01,-0.69 0.02,-0.79 0.93,-44.35 2.04,-96.85 2.04,-169.85 0,-73.01 -1.11,-125.51 -2.04,-169.85l-0.04 -0.79c-2.84,-135.63 -4.27,-203.48 28.2,-259.71l2.97 -5.15 0.14 0.09c16.17,-25.94 38.62,-47.06 70.71,-69.2 33.76,-23.29 78.06,-47.63 137.1,-80.07 21.5,-11.81 44.99,-24.72 68.56,-37.86 24.99,-13.93 51.76,-29.05 80.11,-45.41 60.92,-35.18 107.11,-63.17 146.14,-86.81l0.47 -0.28c57.86,-35.06 101.26,-61.35 138.13,-78.89 37.52,-17.84 68.47,-26.77 100.97,-26.77l5.82 0 0 0.24c30.53,1 60.03,9.87 95.27,26.61 36.86,17.51 80.21,43.79 138.01,78.8l0.47 0.28c39.02,23.64 85.22,51.63 146.14,86.8zm115.09 144.43l-0.39 -0.21c-41.1,-22.59 -89.75,-49.32 -149.62,-83.89 -55.35,-31.94 -105.15,-62.12 -147.23,-87.61l-0.49 -0.3c-52.77,-31.97 -92.35,-55.95 -124.62,-71.95 -29.35,-14.54 -52.39,-22.31 -73.68,-23.33l-4.76 0c-45.77,0 -98.14,31.7 -202.75,95.09l-0.81 0.49c-42.08,25.49 -91.88,55.66 -147.21,87.61 -29.53,17.05 -56.73,32.41 -81.77,46.37 -26.05,14.53 -48.09,26.64 -68.26,37.73 -54.19,29.78 -94.85,52.12 -124.72,71.98 -28.64,19.04 -47.33,35.76 -58.66,54.68l0 0.07 -0.8 1.38c-11.29,19.57 -16.66,44.49 -18.89,79.66 -2.29,35.94 -1.31,82.22 -0.01,143.91l0.01 0.38c1.06,50.48 2.33,110.23 2.33,171.48 0,61.25 -1.26,121 -2.33,171.48l-0.01 0.38c-1.3,61.69 -2.28,107.97 0.01,143.91 2.24,35.17 7.6,60.1 18.89,79.67l0.8 1.38 0 0.06c11.34,18.92 30.02,35.64 58.66,54.68 29.87,19.86 70.52,42.2 124.72,71.98l0.39 0.21c41.1,22.59 89.75,49.32 149.62,83.89 55.35,31.94 105.15,62.12 147.23,87.61l0.49 0.3c52.77,31.97 92.35,55.95 124.62,71.95 29.35,14.54 52.39,22.31 73.68,23.33l4.76 0c45.77,0 98.14,-31.7 202.76,-95.09l0.8 -0.49c42.08,-25.49 91.88,-55.66 147.21,-87.61 30.03,-17.33 57.11,-32.62 81.77,-46.37 26.08,-14.55 48.09,-26.64 68.26,-37.73 54.19,-29.78 94.85,-52.12 124.72,-71.98 28.66,-19.05 47.34,-35.77 58.66,-54.66l0 -0.11 0.8 -1.38c11.3,-19.57 16.66,-44.49 18.89,-79.64 2.29,-35.93 1.31,-82.21 0.01,-143.91l-0.01 -0.38c-1.06,-50.48 -2.33,-110.23 -2.33,-171.48 0,-61.25 1.26,-121 2.33,-171.48l0.01 -0.38c1.3,-61.69 2.28,-107.97 -0.01,-143.91 -2.24,-35.15 -7.6,-60.07 -18.89,-79.64l-0.8 -1.38 0 -0.11c-11.32,-18.89 -30.01,-35.61 -58.66,-54.66 -29.87,-19.86 -70.52,-42.2 -124.72,-71.97z"/>  
  </g>
</svg>
